<svg id="Layer_1" data-name="Layer 1" xmlns="http://www.w3.org/2000/svg" viewBox="0 0 381.29 22.2"><defs><style>.cls-1{fill:#1d1d1b}.cls-2{fill:#e11517}</style></defs><path class="cls-1" d="M230 297.88c0-6.76 5-11.07 11.43-11.07 2.95 0 6.13 1.07 7.89 3.09l-3.46 3.45a5.26 5.26 0 00-4.25-1.93c-3.54 0-6.07 2.74-6.07 6.46s2.47 6.45 6 6.45a5.37 5.37 0 004.46-2.14l3.54 3.33a10.43 10.43 0 01-8.18 3.49c-6.54-.01-11.36-4.53-11.36-11.13zm30.62-6.16h-6v-4.35h17v4.35h-6v16.72h-5.09zm44.79-4.35h18.27v21.07h-5.09v-16.75h-8.09v16.75h-5.09zm39.59 0h2.14v9.47l10-9.47h3.06l-10.62 9.55 11.22 11.52h-3.16l-10.53-11.22v11.22H345zm21.31 10.54a11 11 0 1111 11.07 10.72 10.72 0 01-11-11.07zm19.69 0c0-4.91-3.3-9.2-8.71-9.2s-8.72 4.29-8.72 9.2 3.3 9.16 8.72 9.16 8.71-4.25 8.71-9.16zm11.19-10.54h5.95c4.28 0 7.11 1.85 7.11 5.63s-2.89 5.65-7.17 5.65h-3.75v9.79h-2.14zm5.77 9.47c3.33 0 5.15-1.34 5.15-3.84s-1.91-3.78-5.15-3.78h-3.63v7.62zm14.81 1.07a11 11 0 1111 11.07 10.72 10.72 0 01-11-11.07zm19.7 0c0-4.91-3.3-9.2-8.72-9.2S420 293 420 297.91s3.31 9.16 8.72 9.16 8.75-4.25 8.75-9.16zm11.18-10.54h2.15v9.14h11.48v-9.14h2.14v21.07h-2.14v-10H450.8v10h-2.15zm32.43 0h2.09l9 21.07h-2.38l-2.32-5.53h-10.85l-2.29 5.53H472zm5.63 13.57l-4.64-11.19-4.65 11.19zm13.02-13.57H506c3.22 0 6.79 1.16 6.79 5.39a4.6 4.6 0 01-3.72 4.52v.06a5.06 5.06 0 014.76 5.27c0 3.51-3 5.83-7.86 5.83h-6.25zm6.46 9.23c2.05 0 4.46-.89 4.46-3.69s-2.29-3.69-5.06-3.69h-3.71v7.38zm-.33 10c3.1 0 5.81-1.17 5.81-4.11 0-2.77-2-4.14-5.42-4.14h-4.37v8.25zm17.26-19.23h2.14v17.74h.06l11.6-17.74h2.41v21.07h-2.14v-17.91h-.06l-11.6 17.91h-2.41zm26.26 0h6c4.29 0 7.12 1.85 7.12 5.63s-2.89 5.65-7.17 5.65h-3.75v9.79h-2.15zm5.78 9.47c3.33 0 5.14-1.34 5.14-3.84s-1.9-3.78-5.14-3.78h-3.63v7.62zm15.08 11.66l.33-2a4.71 4.71 0 001.52.23c1.39 0 2.23-.77 3.09-2.35l1.4-2.59-8.18-14.4h2.5l6.87 12.23 6.69-12.23h2.35L577 305.08c-1.19 2.14-2.47 3.6-4.9 3.6a9.74 9.74 0 01-1.86-.18zm22.16-10.59a10.72 10.72 0 0111-11.07c3.1 0 6 1.28 7.5 3.33l-1.78 1.31a6.93 6.93 0 00-5.69-2.77c-5.44 0-8.74 4.29-8.74 9.2s3.33 9.19 8.74 9.19a7.21 7.21 0 006.17-3.1l1.67 1.07a9.25 9.25 0 01-7.89 3.93 10.68 10.68 0 01-10.98-11.09z" transform="translate(-229.97 -286.81)"/><path class="cls-2" d="M283.59 300.26a1 1 0 00-.25 0 1 1 0 00-.8 1.53l1.51-1.51a.9.9 0 01-.46 0m6.32-6.13a.46.46 0 010 .2l1.12-1.12a.75.75 0 00-.51-.17.77.77 0 00-.73.67.75.75 0 00.07.42" transform="translate(-229.97 -286.81)"/><path class="cls-2" d="M283 297.63a1 1 0 01.82-.23l.92.15a3.49 3.49 0 00.06.91l-.59.15a.74.74 0 01-.66-.14.76.76 0 00-1 1.19.76.76 0 001 0 .77.77 0 00.22-.29.77.77 0 01.51-.45l.59-.15a3.39 3.39 0 00.2.53l.4-.39a.28.28 0 010-.09.88.88 0 01.89-.88h.09l1.4-1.4v-.13a1 1 0 011-.94h.12l.74-.75a3 3 0 00-.65-.23l.15-.91a1 1 0 01.46-.71 1.56 1.56 0 00.2-.16 1 1 0 000-1.39 1 1 0 00-1.43.05 1 1 0 000 1.28 1.06 1.06 0 01.22.82l-.15.92a3.32 3.32 0 00-.94.07l-.1-.41a.6.6 0 01.1-.52.59.59 0 00-.94-.72.59.59 0 000 .75.54.54 0 00.21.16.63.63 0 01.34.41l.1.4a3.29 3.29 0 00-.77.34l-.54-.75a1 1 0 01-.17-.83.69.69 0 000-.25 1 1 0 10-2 .07 1 1 0 00.88.93 1 1 0 01.74.42l.55.76-.18.17-.21.22-.12-.09a.59.59 0 01-.21-.41.58.58 0 00-.15-.34.53.53 0 10-.26.88.57.57 0 01.44.1l.12.1a3.34 3.34 0 00-.51 1.12l-.91-.15a1 1 0 01-.71-.46 1 1 0 00-.16-.2 1 1 0 10-.06 1.48m3.28-1.85a.61.61 0 010 1.21.61.61 0 110-1.21" transform="translate(-229.97 -286.81)"/><path class="cls-2" d="M288.11 289.23a8.57 8.57 0 108.56 8.56 8.57 8.57 0 00-8.56-8.56m-8.3 8.56a8.3 8.3 0 018.3-8.29 8.21 8.21 0 015.5 2.1l-11.7 11.7a8.21 8.21 0 01-2.1-5.51m11.27.35a.57.57 0 01-.57.57.58.58 0 01-.57-.57.57.57 0 01.57-.57.56.56 0 01.57.57m-1.23 1.86a.3.3 0 11-.59 0 .3.3 0 01.59 0m-1.15-1.85a.43.43 0 11-.42.42.5.5 0 010-.12l.28-.28h.12m-.22 1.41a.49.49 0 11-.49.49.49.49 0 01.49-.49m-.37 6.55a8.3 8.3 0 01-5.44-2l2.2-2.2a.41.41 0 00.07.11.57.57 0 00.86 0 .58.58 0 00.16-.54.65.65 0 01.1-.54l.2-.26a3.46 3.46 0 001 .43l-.15.91a1 1 0 01-.46.71 1.56 1.56 0 00-.2.16 1 1 0 101.48.06 1 1 0 01-.23-.82l.15-.92a3.63 3.63 0 001-.09.5.5 0 01-.13.47v.07a.76.76 0 101.2-.05.82.82 0 00-.36-.23.57.57 0 01-.37-.34 3.39 3.39 0 00.67-.31l.54.75a1 1 0 01.17.83 1 1 0 000 .25 1 1 0 101.09-1 1 1 0 01-.74-.42l-.55-.76a1 1 0 00.18-.17 2.8 2.8 0 00.39-.46l.59.33a.75.75 0 01.37.56.75.75 0 00.67.64.76.76 0 10.13-1.52.67.67 0 00-.35.06.74.74 0 01-.68 0l-.58-.33a3.24 3.24 0 00.35-.87l.92.15a1 1 0 01.7.46 1.56 1.56 0 00.16.2 1 1 0 10.07-1.48 1 1 0 01-.81.22l-.93-.15a3.49 3.49 0 000-.79l.44-.1a.64.64 0 01.52.11.6.6 0 00.73-.94.6.6 0 00-.75 0 .68.68 0 00-.17.21.6.6 0 01-.4.33l-.44.1a3.2 3.2 0 00-.46-.96l.75-.54a1 1 0 01.83-.17 1 1 0 00.25 0 1 1 0 00.39-1.88l1.11-1.11a8.29 8.29 0 01-6.26 13.73" transform="translate(-229.97 -286.81)"/><path class="cls-1" d="M288.11 287a10.84 10.84 0 1010.83 10.83A10.83 10.83 0 00288.11 287m0 18.57a7.74 7.74 0 117.73-7.74 7.75 7.75 0 01-7.73 7.74" transform="translate(-229.97 -286.81)"/></svg>